<svg width="2387" height="344" viewBox="0 0 2387 344" fill="none" xmlns="http://www.w3.org/2000/svg">
<path d="M18.8423 295.894C6.33486 282.083 3.72914 265.016 11.0251 244.691L20.7966 216.55H127.11L120.465 234.529C119.162 238.438 120.986 240.392 125.937 240.392H255.311C260.001 240.392 262.998 238.438 264.301 234.529L276.417 199.352C277.981 195.704 276.287 193.88 271.336 193.88H117.338C92.584 193.88 73.9532 186.845 61.4457 172.774C48.9383 158.963 46.3326 141.896 53.6286 121.571L70.4354 72.3234C75.6469 57.2103 83.7246 44.1817 94.6686 33.2377L58.3189 0.405662H362.797C388.072 0.405662 406.703 7.31081 418.689 21.1211C430.675 35.192 433.411 52.2594 426.897 72.3234L417.126 100.465H310.813L316.675 82.4857C318.239 78.5771 316.675 76.6228 311.985 76.6228H182.221C181.96 76.6228 181.83 76.7531 181.83 77.0137C181.83 77.0137 181.699 77.0137 181.439 77.0137H131.8L164.632 106.719L160.723 117.663C159.421 121.571 161.245 123.526 166.195 123.526H320.193C345.208 123.526 363.969 130.431 376.477 144.241C388.723 158.573 391.329 175.64 384.294 195.443L367.487 244.691C359.409 266.84 346.511 284.429 328.792 297.457C311.334 310.486 290.749 317 267.037 317H74.7349C49.9806 317 31.3497 309.965 18.8423 295.894Z" fill="#00D54B"/>
<path d="M444.303 317C453.162 290.682 461.891 265.277 470.49 240.783C474.138 230.36 477.916 219.546 481.825 208.342C485.733 197.137 489.512 186.193 493.16 175.51C496.808 164.826 500.325 154.534 503.713 144.632C507.1 134.73 510.227 125.871 513.093 118.054H619.407C614.977 114.145 609.765 109.585 603.772 104.374C597.779 98.9017 591.395 93.0388 584.62 86.7851C577.845 80.5314 570.68 74.0171 563.123 67.2422C555.827 60.4674 548.661 53.9531 541.626 47.6994C525.21 32.8468 507.882 17.0822 489.642 0.405662H660.056L624.879 101.638C624.357 103.201 623.836 104.765 623.315 106.328C622.794 107.631 622.143 109.325 621.361 111.409C620.84 113.494 620.188 115.709 619.407 118.054C618.364 120.659 617.713 122.483 617.452 123.526C617.192 124.568 616.931 125.48 616.671 126.262C607.029 154.143 598.04 180.07 589.701 204.042C586.053 214.205 582.405 224.627 578.757 235.311C575.109 245.734 571.592 255.766 568.204 265.407C565.077 274.787 562.211 283.386 559.605 291.203C557 298.76 554.915 304.753 553.352 309.183C552.831 310.486 552.44 311.658 552.179 312.701C551.919 313.743 551.658 314.525 551.397 315.046C551.137 315.827 550.876 316.479 550.616 317H444.303ZM666.068 317C671.28 301.887 676.621 286.513 682.093 270.879C687.565 254.984 693.037 239.219 698.509 223.585C703.981 207.951 709.193 192.577 714.144 177.464C719.355 162.351 724.306 148.15 728.996 134.861C739.68 103.331 750.233 72.7143 760.656 43.0091L713.753 0.405662H865.796L921.689 184.89C922.731 183.587 923.904 182.285 925.207 180.982C926.509 179.679 927.942 178.246 929.506 176.682C931.33 174.858 933.284 172.774 935.369 170.429C940.32 164.957 946.443 158.442 953.739 150.886C961.296 143.069 969.243 134.73 977.581 125.871C986.18 116.751 995.04 107.37 1004.16 97.7291C1013.28 88.088 1022.27 78.5771 1031.13 69.1965C1051.71 47.3085 1073.34 24.3782 1096.01 0.405662H1197.24L1196.07 3.92338C1195.55 5.22623 1194.9 6.65938 1194.12 8.22282C1193.6 9.78625 1193.07 11.6102 1192.55 13.6948C1190.21 20.2091 1187.34 28.4171 1183.95 38.3188C1180.57 47.96 1176.79 58.904 1172.62 71.1508C1168.45 82.8765 1164.02 95.384 1159.33 108.673C1154.9 121.962 1150.34 135.512 1145.65 149.322C1140.96 162.872 1136.14 176.422 1131.19 189.971C1126.5 203.521 1122.07 216.55 1117.9 229.057C1107.74 258.241 1097.57 287.555 1087.41 317H981.099L1024.88 190.753C1003.51 211.599 982.923 231.533 963.12 250.554C954.781 258.893 946.052 267.361 936.932 275.96C928.073 284.559 919.344 293.027 910.745 301.366C902.406 309.443 894.459 317.13 886.903 324.426C879.346 331.722 872.701 338.106 866.969 343.578C864.624 336.803 862.018 329.377 859.152 321.299C856.546 313.482 853.81 305.405 850.944 297.066C848.077 288.467 845.211 279.999 842.345 271.661C839.478 263.062 836.742 254.854 834.137 247.037C827.883 228.797 821.629 210.166 815.376 191.144C811.206 202.87 806.777 215.638 802.086 229.448C798.178 241.174 793.618 254.593 788.406 269.706C783.195 284.819 777.853 300.584 772.381 317H666.068ZM1203.12 317C1208.07 302.147 1213.28 286.904 1218.75 271.27C1224.22 255.635 1229.69 240.001 1235.17 224.367C1240.64 208.733 1245.98 193.359 1251.19 178.246C1256.4 163.133 1261.35 148.931 1266.04 135.642C1276.99 104.113 1287.67 73.2354 1298.09 43.0091L1250.8 0.405662H1579.51C1586.81 0.405662 1594.1 1.18738 1601.4 2.75082C1608.69 4.31425 1615.34 6.91996 1621.33 10.568C1627.59 13.9554 1632.93 18.5154 1637.36 24.248C1641.79 29.72 1644.78 36.4948 1646.35 44.5725C1647.13 49.2628 1647.26 53.9531 1646.74 58.6434C1646.22 63.0731 1645.17 67.6331 1643.61 72.3234L1615.08 154.403C1611.43 165.347 1606.09 175.249 1599.05 184.109C1592.28 192.968 1584.2 200.525 1574.82 206.778C1565.7 213.032 1555.67 217.853 1544.72 221.24C1534.04 224.627 1523.1 226.321 1511.89 226.321H1340.7C1337.83 234.659 1334.7 243.649 1331.32 253.29C1328.45 261.629 1325.06 271.27 1321.15 282.214C1317.51 293.158 1313.6 304.753 1309.43 317H1203.12ZM1381.35 108.673L1366.1 153.231H1502.12C1506.55 153.231 1509.55 151.407 1511.11 147.759L1533.39 82.4857C1533.65 82.2251 1533.78 81.4434 1533.78 80.1405C1533.26 77.7954 1531.57 76.6228 1528.7 76.6228L1392.68 77.0137H1346.17L1381.35 108.673ZM1664.59 317L1759.56 42.2274L1713.05 0.405662H1880.34L1797.48 240.392H1980.01L1953.43 317H1664.59ZM1940.93 0.405662H2097.28L2137.14 114.145L2259.48 0.405662H2386.12L2162.55 205.997L2124.25 317H2017.93L2056.24 205.997L1994.48 48.872L1940.93 0.405662Z" fill="#D9D9D9"/>
</svg>
