<svg width="512" height="512" viewBox="0 0 512 512" fill="none" xmlns="http://www.w3.org/2000/svg">
<g clip-path="url(#clip0_1_3)">
<path d="M55.8423 393.894C43.3349 380.083 40.7291 363.016 48.0251 342.691L57.7966 314.55H164.11L157.465 332.529C156.162 336.438 157.986 338.392 162.937 338.392H292.311C297.001 338.392 299.998 336.438 301.301 332.529L313.417 297.352C314.981 293.704 313.287 291.88 308.336 291.88H154.338C129.584 291.88 110.953 284.845 98.4457 270.774C85.9383 256.963 83.3326 239.896 90.6286 219.571L107.435 170.323C112.647 155.21 120.725 142.182 131.669 131.238L95.3189 98.4057H399.797C425.072 98.4057 443.703 105.311 455.689 119.121C467.675 133.192 470.411 150.259 463.897 170.323L454.126 198.465H347.813L353.675 180.486C355.239 176.577 353.675 174.623 348.985 174.623H219.221C218.96 174.623 218.83 174.753 218.83 175.014C218.83 175.014 218.699 175.014 218.439 175.014H168.8L201.632 204.719L197.723 215.663C196.421 219.571 198.245 221.526 203.195 221.526H357.193C382.208 221.526 400.969 228.431 413.477 242.241C425.723 256.573 428.329 273.64 421.294 293.443L404.487 342.691C396.409 364.84 383.511 382.429 365.792 395.457C348.334 408.486 327.749 415 304.037 415H111.735C86.9806 415 68.3497 407.965 55.8423 393.894Z" fill="#00D54B"/>
</g>
<defs>
<clipPath id="clip0_1_3">
<rect width="512" height="512" fill="white"/>
</clipPath>
</defs>
</svg>
