<svg width="2443" height="512" viewBox="0 0 2443 512" fill="none" xmlns="http://www.w3.org/2000/svg">
<g clip-path="url(#clip0_2_4)">
<path d="M55.8423 393.894C43.3349 380.083 40.7291 363.016 48.0251 342.691L57.7966 314.55H164.11L157.465 332.529C156.162 336.438 157.986 338.392 162.937 338.392H292.311C297.001 338.392 299.998 336.438 301.301 332.529L313.417 297.352C314.981 293.704 313.287 291.88 308.336 291.88H154.338C129.584 291.88 110.953 284.845 98.4457 270.774C85.9383 256.963 83.3326 239.896 90.6286 219.571L107.435 170.323C112.647 155.21 120.725 142.182 131.669 131.238L95.3189 98.4057H399.797C425.072 98.4057 443.703 105.311 455.689 119.121C467.675 133.192 470.411 150.259 463.897 170.323L454.126 198.465H347.813L353.675 180.486C355.239 176.577 353.675 174.623 348.985 174.623H219.221C218.96 174.623 218.83 174.753 218.83 175.014C218.83 175.014 218.699 175.014 218.439 175.014H168.8L201.632 204.719L197.723 215.663C196.421 219.571 198.245 221.526 203.195 221.526H357.193C382.208 221.526 400.969 228.431 413.477 242.241C425.723 256.573 428.329 273.64 421.294 293.443L404.487 342.691C396.409 364.84 383.511 382.429 365.792 395.457C348.334 408.486 327.749 415 304.037 415H111.735C86.9806 415 68.3497 407.965 55.8423 393.894Z" fill="#00D54B"/>
<path d="M481.303 415C490.162 388.682 498.891 363.277 507.49 338.783C511.138 328.36 514.916 317.546 518.825 306.342C522.733 295.137 526.512 284.193 530.16 273.51C533.808 262.826 537.325 252.534 540.713 242.632C544.1 232.73 547.227 223.871 550.093 216.054H656.407C651.977 212.145 646.765 207.585 640.772 202.374C634.779 196.902 628.395 191.039 621.62 184.785C614.845 178.531 607.68 172.017 600.123 165.242C592.827 158.467 585.661 151.953 578.626 145.699C562.21 130.847 544.882 115.082 526.642 98.4057H697.056L661.879 199.638C661.357 201.201 660.836 202.765 660.315 204.328C659.794 205.631 659.143 207.325 658.361 209.409C657.84 211.494 657.188 213.709 656.407 216.054C655.364 218.659 654.713 220.483 654.452 221.526C654.192 222.568 653.931 223.48 653.671 224.262C644.029 252.143 635.04 278.07 626.701 302.042C623.053 312.205 619.405 322.627 615.757 333.311C612.109 343.734 608.592 353.766 605.204 363.407C602.077 372.787 599.211 381.386 596.605 389.203C594 396.76 591.915 402.753 590.352 407.183C589.831 408.486 589.44 409.658 589.179 410.701C588.919 411.743 588.658 412.525 588.397 413.046C588.137 413.827 587.876 414.479 587.616 415H481.303ZM703.068 415C708.28 399.887 713.621 384.513 719.093 368.879C724.565 352.984 730.037 337.219 735.509 321.585C740.981 305.951 746.193 290.577 751.144 275.464C756.355 260.351 761.306 246.15 765.996 232.861C776.68 201.331 787.233 170.714 797.656 141.009L750.753 98.4057H902.796L958.689 282.89C959.731 281.587 960.904 280.285 962.207 278.982C963.509 277.679 964.942 276.246 966.506 274.682C968.33 272.858 970.284 270.774 972.369 268.429C977.32 262.957 983.443 256.442 990.739 248.886C998.296 241.069 1006.24 232.73 1014.58 223.871C1023.18 214.751 1032.04 205.37 1041.16 195.729C1050.28 186.088 1059.27 176.577 1068.13 167.197C1088.71 145.309 1110.34 122.378 1133.01 98.4057H1234.24L1233.07 101.923C1232.55 103.226 1231.9 104.659 1231.12 106.223C1230.6 107.786 1230.07 109.61 1229.55 111.695C1227.21 118.209 1224.34 126.417 1220.95 136.319C1217.57 145.96 1213.79 156.904 1209.62 169.151C1205.45 180.877 1201.02 193.384 1196.33 206.673C1191.9 219.962 1187.34 233.512 1182.65 247.322C1177.96 260.872 1173.14 274.422 1168.19 287.971C1163.5 301.521 1159.07 314.55 1154.9 327.057C1144.74 356.241 1134.57 385.555 1124.41 415H1018.1L1061.88 288.753C1040.51 309.599 1019.92 329.533 1000.12 348.554C991.781 356.893 983.052 365.361 973.932 373.96C965.073 382.559 956.344 391.027 947.745 399.366C939.406 407.443 931.459 415.13 923.903 422.426C916.346 429.722 909.701 436.106 903.969 441.578C901.624 434.803 899.018 427.377 896.152 419.299C893.546 411.482 890.81 403.405 887.944 395.066C885.077 386.467 882.211 377.999 879.345 369.661C876.478 361.062 873.742 352.854 871.137 345.037C864.883 326.797 858.629 308.166 852.376 289.144C848.206 300.87 843.777 313.638 839.086 327.448C835.178 339.174 830.618 352.593 825.406 367.706C820.195 382.819 814.853 398.584 809.381 415H703.068ZM1240.12 415C1245.07 400.147 1250.28 384.904 1255.75 369.27C1261.22 353.635 1266.69 338.001 1272.17 322.367C1277.64 306.733 1282.98 291.359 1288.19 276.246C1293.4 261.133 1298.35 246.931 1303.04 233.642C1313.99 202.113 1324.67 171.235 1335.09 141.009L1287.8 98.4057H1616.51C1623.81 98.4057 1631.1 99.1874 1638.4 100.751C1645.69 102.314 1652.34 104.92 1658.33 108.568C1664.59 111.955 1669.93 116.515 1674.36 122.248C1678.79 127.72 1681.78 134.495 1683.35 142.573C1684.13 147.263 1684.26 151.953 1683.74 156.643C1683.22 161.073 1682.17 165.633 1680.61 170.323L1652.08 252.403C1648.43 263.347 1643.09 273.249 1636.05 282.109C1629.28 290.968 1621.2 298.525 1611.82 304.778C1602.7 311.032 1592.67 315.853 1581.72 319.24C1571.04 322.627 1560.1 324.321 1548.89 324.321H1377.7C1374.83 332.659 1371.7 341.649 1368.32 351.29C1365.45 359.629 1362.06 369.27 1358.15 380.214C1354.51 391.158 1350.6 402.753 1346.43 415H1240.12ZM1418.35 206.673L1403.1 251.231H1539.12C1543.55 251.231 1546.55 249.407 1548.11 245.759L1570.39 180.486C1570.65 180.225 1570.78 179.443 1570.78 178.141C1570.26 175.795 1568.57 174.623 1565.7 174.623L1429.68 175.014H1383.17L1418.35 206.673ZM1701.59 415L1796.56 140.227L1750.05 98.4057H1917.34L1834.48 338.392H2017.01L1990.43 415H1701.59ZM1977.93 98.4057H2134.28L2174.14 212.145L2296.48 98.4057H2423.12L2199.55 303.997L2161.25 415H2054.93L2093.24 303.997L2031.48 146.872L1977.93 98.4057Z" fill="#333333"/>
</g>
<defs>
<clipPath id="clip0_2_4">
<rect width="2443" height="512" fill="white"/>
</clipPath>
</defs>
</svg>
